# xmcd
# 
# Track frame offsets:
#     150
#     14688
#     29250
#     41691
#     57031
#     68351
#     79777
#     96716
#     110606
#     122892
#     136863
#     151255
#     164303
#     174473
#     187668
#     201204
#     215169
#     228352
#     239514
#     252534
#     265057
#     279635
#     292934
#     306679
#     318988
#     330486
#     343365
# 
# Disc length: 4757
# 
# Revision: 2
# Processed by: cddbd v1.5.2PL0 Copyright (c) Steve Scherf et al.
# Submitted via: fre:ac v1.0.31
# 
DISCID=9412931b
DTITLE=Muddy Waters - Essential Original Albums Disc 3
DYEAR=1955
DGENRE=Blues
TTITLE0=Country Boy
TTITLE1=Please Have Mercy
TTITLE2=Looking for My Baby
TTITLE3=Standing Around Crying
TTITLE4=Gone to Main Street
TTITLE5=She's All Right
TTITLE6=Sad Sad Day
TTITLE7=Who's Gonna Be Your Sweet Man
TTITLE8=Turn the Lamp Down Low
TTITLE9=Mad Love
TTITLE10=Blow Wind Blow
TTITLE11=I'm Your Hoochie Coochie Man
TTITLE12=She's So Pretty
TTITLE13=Just Make Love to Me
TTITLE14=Oh Yeh!
TTITLE15=I'm Ready
TTITLE16=I Don't Know Why
TTITLE17=Lovin' Man
TTITLE18=I'm a Natural Born Lover
TTITLE19=I Want to Be Loved
TTITLE20=My Eyes Keep Me in Trouble
TTITLE21=Mannish Boy
TTITLE22=Young Fashioned Ways
TTITLE23=Trouble No More
TTITLE24=Sugar Sweet
TTITLE25=I Got to Find My Baby
TTITLE26=Clouds in My Heart
EXTD=
EXTT0=
EXTT1=
EXTT2=
EXTT3=
EXTT4=
EXTT5=
EXTT6=
EXTT7=
EXTT8=
EXTT9=
EXTT10=
EXTT11=
EXTT12=
EXTT13=
EXTT14=
EXTT15=
EXTT16=
EXTT17=
EXTT18=
EXTT19=
EXTT20=
EXTT21=
EXTT22=
EXTT23=
EXTT24=
EXTT25=
EXTT26=
PLAYORDER=
